<?xml version="1.0" encoding="UTF-8"?>
<!-- Generator: Adobe Illustrator 27.4.0, SVG Export Plug-In . SVG Version: 6.00 Build 0)  -->
<svg xmlns="http://www.w3.org/2000/svg" xmlns:xlink="http://www.w3.org/1999/xlink" version="1.1" id="Ebene_1" x="0px" y="0px" viewBox="0 0 1820.8 434.6" style="enable-background:new 0 0 1820.8 434.6;" xml:space="preserve">
<style type="text/css">
	.st0{fill:#FFFFFF;}
</style>
<g id="d9k5nC.tif">
	<g>
		<path class="st0" d="M439.2,0c128,0,255.9,0,383.9,0c25.1,0,48.2,17.8,54.2,42.2c1.8,7.2,2.8,14.8,2.8,22.2    c0.2,102.5,0,205,0.2,307.4c0,31.7-18.6,55.6-49.5,62c-3.6,0.7-7.3,0.7-11,0.7c-253.1,0-506.1,0-759.2,0.1    c-20.4,0-36.8-7.5-49.1-23.5C4.2,401.8,0,391.3,0,379C0.1,270.6,0.1,162.2,0.1,53.9c0-27,26.5-53.1,52-53.7C60.3,0,68.5,0,76.7,0    C197.6,0,318.4,0,439.2,0C439.2,0,439.2,0,439.2,0z M100.4,134.8c0,14.9,0,28.8,0,42.8c0.1,41.1,0.3,82.2,0.5,123.3    c0,2.7-0.9,3.7-3.5,3.6c-5.2-0.1-10.4-0.1-15.6,0c-5.7,0.1-5.9,0.3-6,6.1c-0.1,5.9,0.1,11.8,0,17.7c-0.1,10.4,0.1,10.7,10.7,10.7    c25.8,0,51.5,0,77.3,0c1.1,0,2.2,0,3.3-0.1c2.7-0.2,4.5-1.4,4.5-4.3c0-9-0.1-18.1-0.2-27.1c0-2.4-1.4-3.3-3.8-3.2    c-3.6,0.1-7.1-0.1-10.7-0.1c-8.7,0-8.7,0-8.8-8.8c0-18.8-0.1-37.5-0.1-56.3c0-2.1-0.5-4.5,3-4.5c19.6,0.1,39.2,0,58.8,0    c2.1,0,3.3,0.4,3.3,2.9c-0.1,21.2,0,42.5,0,63.7c0,2.6-1.2,3.3-3.6,3.2c-4.9-0.2-9.9,0.1-14.8-0.2c-4.1-0.2-5.7,1.6-5.7,5.5    c0,7.4-0.1,14.8,0,22.2c0,4.9,1.4,6.3,6.3,6.8c1.4,0.1,2.7,0.1,4.1,0.1c24.5,0,49.1,0,73.6,0c2.2,0,4.4-0.1,6.6-0.1    c3.2-0.1,5.1-1.4,5-4.9c-0.2-8.9-0.1-17.8-0.4-26.7c0-0.9-1.9-2.5-3-2.6c-4.1-0.3-8.2-0.2-12.3-0.2c-8.5-0.1-8.5-0.1-8.5-8.6    c0-52.2,0.1-104.4,0.1-156.6c0-1.3,0.1-2.6,0.2-4.3c8.1,0,15.7,0,23.5,0c0-11.1,0-21.8,0-32.3c-0.9-0.2-1.2-0.4-1.5-0.4    c-29.9,0-59.7,0-89.6-0.1c-3.3,0-4.2,1.9-4.2,4.7c0,7,0,14,0,21c0,6.6,0.2,6.8,6.8,7.1c1.1,0.1,2.2,0,3.3,0c4.5,0,8.9,0,13.8,0    c0,20.1,0,39.5,0,59c0,2.9-1.5,3.3-4,3.3c-19.2,0-38.4-0.1-57.5,0.1c-2.8,0-3.6-0.9-3.6-3.5c0.1-18.4,0.1-36.7,0.1-55.1    c0-2.8,0.8-3.9,3.7-3.8c5.2,0.2,10.4-0.1,15.6,0.1c2.7,0.1,4.2-0.8,4.2-3.6c0-8.5,0.1-17,0.1-25.5c0-2.6-1.2-3.9-4.1-3.9    c-28.9,0.1-57.8,0.1-86.7,0c-3.7,0-5.2,1.4-5.1,5.1c0.1,7.7,0.1,15.3-0.1,23c-0.1,3,0.9,4.6,4.2,4.5    C86.5,134.8,93.2,134.8,100.4,134.8z M561.6,134.9c0.1,1.6,0.2,2.5,0.2,3.5c0.1,48.9,0.2,97.8,0.3,146.7c0,5.2,0,10.4,0.2,15.6    c0.1,2.8-0.9,3.9-3.8,3.8c-4.9-0.2-9.9-0.1-14.8,0c-6.2,0.1-6.6,0.4-6.7,6.5c-0.1,7.1,0.2,14.3,0,21.4c-0.2,4.2,1.7,6.1,5.6,6.5    c1.8,0.2,3.6,0.2,5.3,0.2c19.2,0,38.4,0,57.5,0c9.3,0,18.6,0,28,0c2.7,0,5.3-0.6,5.3-3.8c0.2-9.1,0.1-18.3,0-27.4    c0-2.4-1.5-3.5-4.1-3.4c-7,0.2-14-0.1-21,0.2c-3.2,0.1-4.2-0.8-4.2-4.1c0.2-21.1,0.2-42.2,0.1-63.3c0-2.9,0.9-3.7,3.8-3.6    c18.5,0.2,37,0.2,55.5,0.2c4.9,0,6.2-0.9,6.4-5.9c0.3-7.9,0.2-15.9,0.1-23.8c-0.1-7.1-0.5-7.3-7.6-7.3c-18.1,0-36.2,0-54.3,0    c-2.1,0-4.1,0.4-4.1-2.9c0.1-16.8,0-33.7,0-50.5c0-2.3,0.5-3.4,3.2-3.4c11.6,0.2,23.3,0.3,34.9,0.1c3.3,0,4.2,1.1,4.1,4.3    c-0.2,5.7-0.3,11.5,0.2,17.2c0.4,4.9,2.4,6.5,7.2,6.5c7.4,0,14.8,0,22.2,0c7.2,0,8.8-1.5,9.4-8.7c0.1-1.4,0-2.7,0-4.1    c0-12.6,0.1-25.2,0.1-37.8c0-3.2,0.1-6.3-0.1-9.5c-0.2-3.6-1.4-5.9-5.9-5.9c-16.3,0.2-32.6-0.1-48.9-0.1c-31,0-61.9,0.1-92.9,0.3    c-5.3,0-5.8,0.6-5.9,6c-0.1,7.4,0,14.8-0.1,22.2c-0.1,3.2,1,4.5,4.2,4.5C547.7,134.8,554.4,134.9,561.6,134.9z M387.5,305.6    c0-9.1,0-17.4,0-25.8c-0.1-35.7-0.2-71.5-0.1-107.2c0-3.5-0.9-4.7-4.7-4.7c-16,0.2-32,0.1-48.1,0.1c-4.9,0-9.9-0.3-14.8-0.5    c-3.1-0.1-4.9,0.8-4.8,4.3c0.1,8.2,0,16.4-0.1,24.6c0,2.9,1.1,4.2,4.2,4.1c6.4-0.1,12.9,0.1,19.3,0c2.6,0,3.6,0.7,3.6,3.5    c-0.1,32.6-0.1,65.2,0,97.8c0,3.2-1.3,3.9-4.2,3.8c-6-0.3-12-0.1-18.1-0.2c-2.9-0.1-4.2,0.9-4.2,4c0.1,6.8,0,13.7,0.1,20.5    c0.1,8.9,0.1,9,9.3,9c25.2,0.1,50.4,0.1,75.6,0.1c2.9,0,5.7-0.2,8.6-0.2c3.6-0.1,5-2,4.9-5.5c-0.1-7.1,0-14.2,0.1-21.4    c0-5.5-0.4-6.1-6-6.2C401.5,305.4,394.8,305.6,387.5,305.6z M777.2,305.8c0-46.3,0-91.9,0-137.8c-24.2,0-47.5,0-71.6,0    c0,9.4,0.1,18.3,0,27.1c-0.1,3.9,1.7,5.5,5.4,5.4c6.2-0.1,12.3,0.1,18.5-0.2c2.6-0.1,3.4,0.7,3.4,3.2c-0.1,32.9-0.1,65.8-0.1,98.6    c0,2.8-1.1,3.4-3.8,3.3c-5.9-0.3-11.8-0.2-17.7-0.4c-3.4-0.1-5.1,1.1-5.1,4.7c0,7.8-0.1,15.6,0,23.4c0.1,5.3,0.7,5.7,6.1,5.7    c28.4,0,56.7,0,85.1,0c1.4,0,2.7-0.1,4.1-0.2c2.6-0.3,3.8-1.7,3.7-4.4c-0.2-8.2-0.2-16.4-0.1-24.7c0-2.9-1.1-3.9-3.8-3.9    C793.6,305.9,785.9,305.8,777.2,305.8z M472.8,270c14.4,0,28.8,0,43.2,0c5.8,0,6.7-0.4,6.9-6.4c0.3-9.2,0.3-18.4-0.1-27.5    c-0.3-6.1-1.1-6.5-7.4-6.5c-2.9,0-5.8,0-8.6,0c-25.9,0-51.8,0-77.7-0.1c-3.8,0-5.9,1-5.8,5.2c0.2,10.3,0.1,20.5,0,30.8    c0,3.6,1.8,4.5,5.2,4.5C443.2,269.9,458,270,472.8,270z M784.3,117c0-16.7-12.8-29-30-28.9c-15.7,0-28.9,13.3-28.8,28.9    c0.2,16.2,13.5,29.3,29.8,29.3C771.6,146.2,784.3,133.4,784.3,117z M393.2,117.3c0.8-17.6-15-29.4-29-29.2    c-16.6,0.2-29.2,12.7-29.2,29.1c0.1,16.4,13.3,29.2,29.8,29C380.9,146,393.3,133.4,393.2,117.3z"></path>
		<path class="st0" d="M1022,273.6c10.9,13.2,21.6,26.2,32.5,39.1c1.2,1.5,3.6,2.5,5.6,2.7c3.2,0.4,6.5,0.1,10.9,0.1    c0,6.3,0.1,12.4-0.1,18.5c0,1-1.9,2.6-2.9,2.6c-9.2,0.1-18.3,0.3-27.5-0.3c-2.2-0.1-4.7-2.7-6.3-4.8    c-11.7-15.5-23.2-31.2-34.8-46.8c-0.2-0.3-0.5-0.6-1.2-1.3c-0.3,1.2-0.6,2-0.7,2.8c-0.1,8.4-0.1,16.7-0.3,25.1    c-0.1,3.2,0.9,4.4,4.2,4.1c3.1-0.3,6.3,0.2,10.3,0.4c0,6.1,0.2,11.9-0.1,17.8c-0.1,1.1-1.9,2.7-3.1,2.9c-3.2,0.5-6.5,0.5-9.8,0.5    c-12.9,0-25.7,0.2-38.6-0.1c-6.3-0.1-6.3-0.5-6.2-6.6c0.1-3.6,0.2-7.1,0-10.7c-0.2-3.2,1.3-4.1,4.1-4c3.4,0.1,6.8,0,10.6,0    c0-2,0-3.4,0-4.9c0-36.4-0.1-72.9,0.1-109.3c0-3.7-1.1-4.6-4.6-4.7c-10.3-0.2-10.3-0.3-10.3-10.8c0-10.5,0-10.5,10.3-10.5    c9.5,0,18.9,0.1,28.4-0.1c4-0.1,5.2,1.2,5.2,5.2c-0.2,28.8-0.3,57.5-0.4,86.3c0,0.7,0.2,1.3,0.4,3.1c9.3-7.6,18-14.8,26.7-22    c-0.1-0.3-0.2-0.6-0.3-1c-2.4,0-4.8-0.1-7.1,0c-2.9,0.2-3.9-1.1-3.9-3.9c0.1-4.5,0.1-9-0.2-13.6c-0.2-3.3,1.6-3.9,4.3-3.9    c9.5,0,18.9,0,28.4,0c6.6,0,13.2,0.1,19.7-0.1c2.5-0.1,3.5,0.9,3.5,3.3c0,4.8,0.1,9.6,0.1,14.4c0,2.7-1.2,4.2-4.1,3.7    c-8.3-1.4-14.5,1.8-20.4,7.5C1037.4,261.2,1029.6,267.1,1022,273.6z"></path>
		<path class="st0" d="M1477.6,331.7c-5.5,9.3-5.5,9.4-16.9,6.6c-3.7-0.9-7.3-2.2-11-3.4c-2-0.6-2.5-1.8-1.5-3.7    c3.2-5.8,3.8-12.1,3.8-18.7c-0.1-36.8,0-73.7,0-110.5c0-1.5,0-3,0-5.3c-3.7,0-7.2-0.1-10.6,0c-2.7,0.1-3.6-0.9-3.5-3.6    c0.2-4.5,0.2-9,0-13.6c-0.1-2.8,1-3.9,3.8-3.9c11.9,0,23.8,0,35.7-0.1c3.3,0,4.2,1.3,4.2,4.4c-0.1,14.9-0.1,29.9-0.1,44.8    c0,1.9,0,3.7,0,6.1c4.7-2.3,8.6-4.7,12.9-6.3c14.9-5.5,32.5-2.8,42.4,10.2c8.2,10.9,10.4,23.6,11.2,36.7c0.8,12.3-0.6,24.3-4,36.1    c-6.7,23.8-29.7,37.8-52.6,31.4C1486.7,337.6,1482.4,334.3,1477.6,331.7z M1481.5,282.3C1481.6,282.3,1481.6,282.3,1481.5,282.3    c0.1,4.5,0.1,9,0,13.6c0,4.5,0,9-0.2,13.5c-0.1,2.8,0.9,4.5,3.4,5.8c11.6,6.4,25.7,1.6,30.6-11.1c6-15.4,5.2-31.2,1-46.7    c-3.3-12.1-13.5-16.3-25.3-11.7c-2.4,0.9-4.8,2.1-6.7,3.8c-1.4,1.2-2.7,3.5-2.7,5.3C1481.4,264,1481.5,273.1,1481.5,282.3z"></path>
		<path class="st0" d="M1348.6,231.1c4.9-2.3,9.2-4.5,13.5-6.3c19.4-7.7,39-0.1,47.6,17.5c3.9,8,4.9,16.5,5.9,25    c1.9,15.9,0.2,31.4-5.9,46.3c-8.6,21.1-29.4,30.9-50.5,25.3c-4.7-1.2-8.8-4.5-13.5-7c-0.6,1-1.8,2.8-2.8,4.7    c-1.7,3.1-4.2,4-7.6,3.2c-5.6-1.4-11.1-2.8-16.7-4.2c-2.2-0.6-2.7-2-1.8-4.1c3.5-8.1,3.6-16.7,3.6-25.4c-0.1-34.6,0-69.3,0-103.9    c0-1.5,0-3,0-5c-4.6,0-9,0-14,0c0-6.9-0.1-13.3,0.1-19.6c0-0.7,1.8-1.9,2.8-1.9c11.9-0.1,23.8,0.1,35.7,0c3.2,0,3.9,1.6,3.9,4.3    c-0.2,15.5-0.3,30.9-0.4,46.4C1348.6,227.8,1348.6,229.2,1348.6,231.1z M1388,281.8c-0.8-8.2-1-13.8-1.9-19.3    c-2.8-16.7-17-23.2-31.5-14.7c-0.4,0.2-0.7,0.5-1.1,0.6c-3.8,1.8-5,4.8-4.9,9c0.2,16.7,0.1,33.4,0.1,50.1c0,5,1.3,7.7,6,9    c12.8,3.5,24.1,0.8,29-13.1C1386.3,295.7,1386.9,287.4,1388,281.8z"></path>
		<path class="st0" d="M1715.3,246.9c-5.1,0-9.4,0-14.5,0c0-6.6-0.1-12.9,0.1-19.3c0-0.7,1.9-1.9,3-1.9c10.1-0.1,20.3,0,30.4,0    c3.2,0,5.1,1.4,5.7,4.6c0.3,1.7,1.1,3.4,1.9,5.8c2.5-1.5,4.9-2.8,7-4.3c9-6.5,18.6-10.1,30.1-9.9c13.5,0.2,23.9,9.3,25.7,22.8    c0.8,5.8,1.1,11.7,1.1,17.6c0.1,16.3,0,32.6-0.2,48.9c0,3.3,0.8,4.4,4.2,4.1c3.4-0.2,6.8,0.3,11.1,0.5c0,5.8,0,11.4,0,17    c0,2.7-1.8,3.5-4.1,3.6c-4.5,0.2-9,0.4-13.5,0.5c-7,0.1-14,0.1-21,0.1c-3.8,0-5.4-1.4-5.4-5.7c0.4-21.1,0.5-42.2,0.5-63.3    c0-4.6-0.6-9.3-1.5-13.9c-1.1-5.9-4.6-8.6-10.6-8.9c-7.5-0.4-13.5,3-18.8,7.9c-1.1,1-1.5,3.2-1.5,4.9c-0.1,18.2,0,36.4,0.1,54.7    c0,0.9,1.6,2.3,2.6,2.5c2.8,0.3,5.8-0.1,8.6,0.3c1.1,0.2,2.8,1.8,2.9,2.8c0.3,5,0.4,10.1,0.1,15.2c-0.1,1.1-2.1,2.8-3.4,2.9    c-5.6,0.4-11.2,0.5-16.8,0.5c-9.7,0.1-19.5,0.1-29.2,0.1c-1.9,0-3.9-0.1-5.7-0.6c-1-0.3-2.2-1.7-2.2-2.6    c-0.2-5.9-0.1-11.7-0.1-18.4c4,0,7.7-0.2,11.3,0.1c2.7,0.2,3.7-0.3,3.7-3.2c-0.1-17.9-0.1-35.9-0.3-53.8    C1716.6,254.8,1715.8,251,1715.3,246.9z"></path>
		<path class="st0" d="M1288.3,315.5c0,6.3,0.2,11.9-0.1,17.5c-0.1,1.2-2,3.3-3.1,3.3c-10.1,0.3-20.2,0.2-30.3,0.1c-2.9,0-4.6-2-5-5    c-0.2-1.5-0.7-2.9-1.2-5.1c-1.8,1.3-3.3,2.1-4.5,3.2c-12.2,10.7-26.3,12.9-41.5,9.2c-7.6-1.8-12.3-7.1-15.5-14.5    c-3.1-7-2.8-14.1-2.8-21.3c-0.1-18.5,0-37,0-55.9c-5,0-9.7,0-14.7,0c0-7.1,0-13.8,0-20.9c2.1-0.2,4.2-0.6,6.3-0.6    c11-0.1,21.9,0.1,32.9-0.2c3.6-0.1,4,1.4,4,4.4c-0.2,22.3-0.5,44.6-0.4,67c0,4.5,0.7,9.4,2.4,13.5c2.7,6.7,7.6,8.9,14.6,6.8    c4.5-1.4,8.7-3.8,12.7-6.4c1.4-0.9,2.5-3.4,2.5-5.2c0.2-18.8,0.2-37.5,0-56.3c0-0.8-1.5-2.2-2.4-2.3c-2.8-0.3-5.7-0.2-8.6-0.1    c-2.3,0.1-3.7-0.6-3.7-3.1c0-5.3-0.2-10.7,0.1-16c0-0.8,1.9-2.3,3-2.3c12.2-0.1,24.4,0,36.6-0.1c2.3,0,3.3,1,3.3,3.2    c0,2.1,0.1,4.1,0.1,6.2c0,20.7-0.1,41.4,0,62.1c0,4.9,1.1,9.7,1.6,14.6c0.3,2.9,1.9,4,4.7,3.9    C1281.7,315.5,1284.5,315.5,1288.3,315.5z"></path>
		<path class="st0" d="M1638.8,288.8c-9.2,0-18.3,0.1-27.5-0.1c-3.3-0.1-4.3,1-4,4.3c1.4,17.8,12.7,25.9,30.4,23.4    c6.7-0.9,13.2-3.5,19.6-5.8c3.3-1.2,5.2-0.6,6.6,2.5c1.9,4.1,4.1,8,5.6,12.3c0.4,1.3-0.8,4.3-2.1,4.8c-6.9,3.1-13.9,6.6-21.2,8.4    c-9.8,2.4-20,2.7-30.1,0.5c-17-3.6-27.8-14.1-33.1-30.3c-5.7-17.4-5.9-35.2,0-52.4c4.9-14.2,13.4-25.9,28.5-31.3    c12.1-4.4,24-4.5,35.8,0.7c12.9,5.7,19.6,16.5,22.5,29.5c2,9.1,2.4,18.6,3.6,28c0.6,4.7-2.1,5.6-5.8,5.6    C1658,288.7,1648.4,288.7,1638.8,288.8C1638.8,288.8,1638.8,288.8,1638.8,288.8z M1643,267.6c-0.6-5-0.8-9.5-1.7-13.9    c-1.3-6.4-6.5-10.5-13.1-11.1c-12.4-1.1-20.7,9-20.6,25C1619.1,267.6,1630.5,267.6,1643,267.6z"></path>
		<path class="st0" d="M1131.3,242.4c0,20-0.1,40,0,60c0.1,12.3,2,13.6,14,10.7c2.5-0.6,3,0.1,3.4,2.4c0.9,4.7,2.1,9.3,3.4,13.9    c1.4,4.9,0.5,7.6-4.3,8.7c-9.5,2.3-19.1,3.8-28.7,0.4c-10-3.5-13.8-11.6-14.9-21.2c-0.7-6.4-1-12.8-1-19.3    c-0.1-32.5-0.1-64.9,0.1-97.4c0-3.2-1-4.2-4-4c-2.3,0.1-4.7-0.1-7,0.1c-2.6,0.2-3.8-0.7-3.7-3.4c0.1-4.7,0.1-9.3,0.1-14    c0-2.7,0.9-4,3.9-3.9c11.4,0.1,22.7,0.2,34.1,0c3.7-0.1,4.6,1.5,4.6,4.9C1131.2,201.1,1131.3,221.7,1131.3,242.4z"></path>
	</g>
</g>
</svg>
